<svg width="170" height="170" viewBox="0 0 170 170" fill="none" xmlns="http://www.w3.org/2000/svg">
<rect width="170" height="170" rx="5" fill="#E1E1E1"/>
<path d="M37.368 101.936H34.968C34.176 101.936 33.96 102.056 33.624 102.704L29.664 110.456L25.704 102.68C25.368 102.08 25.128 101.936 24.288 101.936H22.032C21.264 101.936 21 102.176 21 102.944V118.016C21 118.76 21.264 119 22.032 119H24.48C25.248 119 25.512 118.76 25.512 118.016V114.608C25.512 112.952 25.392 111.752 24.528 108.296H24.768C25.008 109.136 25.752 111.344 26.256 112.256L27.672 114.968C27.936 115.496 28.176 115.664 28.824 115.664H30.432C31.08 115.664 31.32 115.448 31.584 114.968L32.928 112.256C33.432 111.272 34.296 109.088 34.536 108.296H34.8C33.888 111.488 33.744 113 33.744 114.584V118.016C33.744 118.76 33.984 119 34.752 119H37.368C38.136 119 38.4 118.76 38.4 118.016V102.944C38.4 102.176 38.136 101.936 37.368 101.936Z" fill="#B3B3B3"/>
<path d="M45.4367 112.952V102.968C45.4367 102.224 45.1727 101.96 44.4047 101.96H41.6927C40.9247 101.96 40.6847 102.224 40.6847 102.968V112.736C40.6847 116.768 43.1807 119.36 47.9087 119.36C52.6607 119.36 55.1567 116.768 55.1567 112.736V102.968C55.1567 102.224 54.8927 101.96 54.1247 101.96H51.4127C50.6447 101.96 50.4047 102.224 50.4047 102.968V112.952C50.4047 114.368 49.5647 115.16 47.9087 115.16C46.2527 115.16 45.4367 114.368 45.4367 112.952Z" fill="#B3B3B3"/>
<path d="M69.1099 101.96H57.9739C57.2299 101.96 56.9659 102.224 56.9659 102.968V105.128C56.9659 105.896 57.2299 106.16 57.9739 106.16H63.8299L57.1819 115.52C56.9659 115.808 56.8459 116.12 56.8459 116.528V117.992C56.8459 118.736 57.1099 119 57.8539 119H69.2299C69.9979 119 70.2379 118.736 70.2379 117.992V115.808C70.2379 115.04 69.9979 114.8 69.2299 114.8H63.1579L69.8059 105.464C70.0219 105.152 70.1179 104.864 70.1179 104.408V102.968C70.1179 102.224 69.8779 101.96 69.1099 101.96Z" fill="#B3B3B3"/>
<path d="M71.5451 108.32V112.64C71.5451 116.792 74.1851 119.36 78.9371 119.36C83.6651 119.36 86.3051 116.792 86.3051 112.64V108.32C86.3051 104.168 83.6651 101.6 78.9371 101.6C74.1851 101.6 71.5451 104.168 71.5451 108.32ZM81.5531 108.104V112.856C81.5531 114.368 80.5931 115.16 78.9371 115.16C77.2571 115.16 76.2971 114.368 76.2971 112.856V108.104C76.2971 106.592 77.2571 105.8 78.9371 105.8C80.5931 105.8 81.5531 106.592 81.5531 108.104Z" fill="#B3B3B3"/>
<path d="M99.4005 101.96H89.3445C88.5765 101.96 88.3125 102.224 88.3125 102.968V117.992C88.3125 118.736 88.5765 119 89.3445 119H92.0565C92.8245 119 93.0645 118.736 93.0645 117.992V113.144H98.1285C98.8965 113.144 99.1605 112.88 99.1605 112.112V109.952C99.1605 109.208 98.8965 108.944 98.1285 108.944H93.0645V106.16H99.4005C100.169 106.16 100.433 105.896 100.433 105.128V102.968C100.433 102.224 100.169 101.96 99.4005 101.96Z" fill="#B3B3B3"/>
<path d="M101.545 108.32V112.64C101.545 116.792 104.185 119.36 108.937 119.36C113.665 119.36 116.305 116.792 116.305 112.64V108.32C116.305 104.168 113.665 101.6 108.937 101.6C104.185 101.6 101.545 104.168 101.545 108.32ZM111.553 108.104V112.856C111.553 114.368 110.593 115.16 108.937 115.16C107.257 115.16 106.297 114.368 106.297 112.856V108.104C106.297 106.592 107.257 105.8 108.937 105.8C110.593 105.8 111.553 106.592 111.553 108.104Z" fill="#B3B3B3"/>
<path d="M131.705 101.96H129.257C128.489 101.96 128.249 102.224 128.249 102.968V106.904C128.249 109.352 128.561 110.504 129.329 112.976H129.137C128.369 111.152 128.177 110.24 127.121 108.584L123.185 102.44C122.969 102.104 122.729 101.96 122.177 101.96H119.345C118.577 101.96 118.312 102.224 118.312 102.968V117.992C118.312 118.736 118.577 119 119.345 119H121.769C122.537 119 122.801 118.736 122.801 117.992V114.08C122.801 111.416 122.513 110.192 122.009 107.888H122.201C122.849 110.048 123.257 111.176 124.312 112.832L128.009 118.52C128.225 118.856 128.489 119 128.993 119H131.705C132.449 119 132.713 118.736 132.713 117.992V102.968C132.713 102.224 132.449 101.96 131.705 101.96Z" fill="#B3B3B3"/>
<path d="M142.005 101.96H136.149C135.381 101.96 135.117 102.224 135.117 102.968V117.992C135.117 118.736 135.381 119 136.149 119H142.005C146.733 119 149.373 116.408 149.373 112.28V108.68C149.373 104.528 146.733 101.96 142.005 101.96ZM144.621 108.752V112.208C144.621 113.912 143.781 114.8 141.837 114.8H139.869V106.16H141.837C143.781 106.16 144.621 107.048 144.621 108.752Z" fill="#B3B3B3"/>
<path d="M109 60.0057V57.5782C109 44.0248 98.1591 33 84.9091 33C71.6591 33 60.8182 44.0248 60.8182 57.5782V60.0057C57.9072 61.0172 56 63.6469 56 66.7824V78.8187C56 82.6622 59.3125 86 63.1269 86H67.0417C68.1458 86 69.0492 85.0897 69.0492 83.9771V61.7252C69.0492 60.6126 68.1458 59.7023 67.0417 59.7023H64.8333V57.6794C64.8333 46.3511 73.8674 37.0458 84.9091 37.0458C95.9508 37.0458 104.985 46.25 104.985 57.5782V59.6011H102.777C101.672 59.6011 100.769 60.5115 100.769 61.624V83.876C100.769 84.9886 101.672 85.8989 102.777 85.8989H106.691C110.506 85.8989 113.818 82.5611 113.818 78.7176V66.7824C113.818 63.7481 111.911 61.0172 109 60.0057Z" fill="#B2B2B2"/>
<path d="M101 72C101 80.8366 93.8366 88 85 88C76.1634 88 69 80.8366 69 72C69 63.1634 76.1634 56 85 56C93.8366 56 101 63.1634 101 72Z" fill="#B2B2B2"/>
<path fill-rule="evenodd" clip-rule="evenodd" d="M92.2708 70.7811C93.2429 71.3192 93.2431 72.6774 92.2711 73.2158L82.165 78.8131C81.2004 79.3474 80 78.6725 80 77.5958V66.4042C80 65.3277 81.2001 64.6527 82.1647 65.1867L92.2708 70.7811Z" fill="#E1E1E1"/>
</svg>
